<svg width="12px" height="61px" viewBox="0 0 12 61" version="1.1" xmlns="http://www.w3.org/2000/svg" xmlns:xlink="http://www.w3.org/1999/xlink">
    <g stroke="none" stroke-width="1" fill="none" fill-rule="evenodd">
        <g transform="translate(-61.000000, -881.000000)" fill="#000000" fill-rule="nonzero" class="fill">
            <path d="M43.772,917 L43.772,915.08 L39.02,915.08 L39.02,905.8 L36.94,905.8 L36.94,917 L43.772,917 Z M48.4582222,917.128 C50.4102222,917.128 51.4982222,916.2 52.1222222,914.776 L50.5222222,914.184 C50.0422222,915.016 49.4822222,915.432 48.5702222,915.432 C47.3382222,915.432 46.7142222,914.504 46.6662222,913.608 L52.2182222,913.608 L52.2182222,912.792 C52.2182222,911.032 51.1462222,908.808 48.4582222,908.808 C45.6902222,908.808 44.5862222,911.064 44.5862222,912.968 C44.5862222,914.872 45.6902222,917.128 48.4582222,917.128 Z M50.1862222,912.04 L46.7142222,912.04 C46.8582222,911.272 47.4502222,910.504 48.4582222,910.504 C49.5142222,910.504 50.0102222,911.24 50.1862222,912.04 Z M57.3364444,917.128 C57.7684444,917.128 58.2004444,917.048 58.6484444,916.84 L58.1844444,915.24 C57.9124444,915.384 57.6884444,915.432 57.4164444,915.432 C56.7444444,915.432 56.3604444,915.112 56.3604444,914.12 L56.3604444,910.632 L58.4884444,910.632 L58.4884444,908.936 L56.3604444,908.936 L56.3604444,905.672 L54.3764444,906.92 L54.3764444,908.936 L53.1284444,908.936 L53.1284444,910.632 L54.3764444,910.632 L54.3764444,914.152 C54.3764444,916.152 55.5124444,917.128 57.3364444,917.128 Z M62.7106666,917.128 C64.4546666,917.128 65.5746666,915.896 65.5746666,914.44 C65.5746666,913.032 64.3742935,912.537558 63.3324751,912.186327 L62.9185674,912.048678 C62.830085,912.018996 62.7444444,911.98963 62.6626666,911.96 C62.1826666,911.784 61.8946666,911.528 61.8946666,911.176 C61.8946666,910.728 62.2466666,910.504 62.6306666,910.504 C63.0786666,910.504 63.6066666,910.728 63.9746666,911.208 L65.1586666,910.12 C64.6626666,909.336 63.7186666,908.808 62.6306666,908.808 C61.0626666,908.808 60.0546666,909.912 60.0546666,911.16 C60.0546666,912.408 60.8066666,912.968 61.6866666,913.336 C62.6626666,913.752 63.7026666,913.896 63.7026666,914.568 C63.7026666,915.16 63.3186666,915.432 62.7106666,915.432 C61.9266666,915.432 61.3826666,914.888 61.0946666,914.104 L59.5106666,914.952 C59.9106666,915.944 61.0306666,917.128 62.7106666,917.128 Z M74.339111,917.128 C74.771111,917.128 75.203111,917.048 75.651111,916.84 L75.187111,915.24 C74.915111,915.384 74.691111,915.432 74.419111,915.432 C73.747111,915.432 73.363111,915.112 73.363111,914.12 L73.363111,910.632 L75.491111,910.632 L75.491111,908.936 L73.363111,908.936 L73.363111,905.672 L71.379111,906.92 L71.379111,908.936 L70.131111,908.936 L70.131111,910.632 L71.379111,910.632 L71.379111,914.152 C71.379111,916.152 72.515111,917.128 74.339111,917.128 Z M79.0893332,917.128 C80.2413332,917.128 81.0093332,916.664 81.5693332,915.976 L81.7773332,917 L83.4093332,917 L83.4093332,912.184 C83.4093332,909.608 81.9373332,908.808 80.0173332,908.808 C78.3693332,908.808 77.2013332,909.72 76.9453332,911.048 L78.6253332,911.432 C78.8813332,910.68 79.4573332,910.504 80.0173332,910.504 C80.7533332,910.504 81.4253332,910.792 81.4253332,911.688 L81.4253332,912.04 L80.0813332,912.04 C78.0493332,912.04 76.6413332,913.08 76.6413332,914.68 C76.6413332,916.28 77.7133332,917.128 79.0893332,917.128 Z M79.5533332,915.432 C78.9933332,915.432 78.7213332,915.032 78.7213332,914.648 C78.7213332,913.928 79.2493332,913.608 80.0973332,913.608 L81.4253332,913.608 L81.4253332,913.768 C81.4253332,914.808 80.4653332,915.432 79.5533332,915.432 Z M87.1835554,917 L87.1835554,905.672 L85.1995554,905.672 L85.1995554,917 L87.1835554,917 Z M91.2457776,917 L91.2457776,913.192 L94.0937776,917 L96.5257776,917 L93.0857776,912.648 L96.3177776,908.936 L93.8697776,908.936 L91.2457776,912.104 L91.2457776,905.672 L89.2617776,905.672 L89.2617776,917 L91.2457776,917 Z" transform="translate(66.732889, 911.400000) rotate(-90.000000) translate(-66.732889, -911.400000) " class="fill"></path>
        </g>
    </g>
</svg>
