<svg width="19px" height="80px" viewBox="0 0 19 80" version="1.1" xmlns="http://www.w3.org/2000/svg" xmlns:xlink="http://www.w3.org/1999/xlink">
    <g stroke="none" stroke-width="1" fill="none" fill-rule="evenodd">
        <g transform="translate(-37.000000, -26.000000)" fill="#ffffff" class="logo-g">
            <path d="M14.0899999,60.3760001 L10.6319999,60.3760001 L10.6319999,65.4200001 L13.9859999,65.4200001 C15.3639999,65.4200001 16.2479999,64.1720001 16.2479999,62.8980001 C16.2479999,61.6500001 15.4159999,60.3760001 14.0899999,60.3760001 Z M10.6319999,74.9360001 L6.80999993,74.9360001 L6.80999993,57.0220001 L14.1679999,57.0220001 C16.0919999,57.0220001 17.5479999,57.5940001 18.5619999,58.7640001 C19.5759999,59.9080001 20.0699999,61.2860001 20.0699999,62.8980001 C20.0699999,64.5100001 19.5759999,65.8880001 18.5619999,67.0320001 C17.5479999,68.1760001 16.0919999,68.7480001 14.1679999,68.7480001 L10.6319999,68.7480001 L10.6319999,74.9360001 Z M21.432,74.9360001 L21.432,56.1900001 L25.046,56.1900001 L25.046,74.9360001 L21.432,74.9360001 Z M40.058,74.9360001 L36.47,74.9360001 L36.47,73.5580001 C36.132,74.0780001 35.586,74.4680001 34.858,74.7540001 C34.156,75.0400001 33.506,75.1700001 32.934,75.1700001 C31.296,75.1700001 29.866,74.5980001 28.618,73.4280001 C27.37,72.2580001 26.746,70.7240001 26.746,68.8520001 C26.746,66.9800001 27.37,65.4720001 28.618,64.3020001 C29.866,63.1320001 31.296,62.5340001 32.934,62.5340001 C34.078,62.5340001 35.638,62.9760001 36.47,64.1460001 L36.47,62.7940001 L40.058,62.7940001 L40.058,74.9360001 Z M33.532,71.7380001 C35.092,71.7380001 36.47,70.5940001 36.47,68.8520001 C36.47,67.1100001 35.092,65.9660001 33.532,65.9660001 C32.726,65.9660001 32.024,66.2520001 31.4,66.7980001 C30.802,67.3440001 30.49,68.0200001 30.49,68.8520001 C30.49,69.6840001 30.802,70.3860001 31.4,70.9320001 C32.024,71.4780001 32.726,71.7380001 33.532,71.7380001 Z M47.218,70.3600001 L45.632,69.9440001 C43.942,69.5020001 42.824,68.8000001 42.408,67.9940001 C42.018,67.1620001 41.966,66.7460001 41.992,65.9920001 C42.018,65.0820001 42.486,64.3020001 43.422,63.6000001 C44.358,62.8980001 45.45,62.5340001 46.724,62.5340001 C48.102,62.5340001 49.272,62.8720001 50.234,63.5220001 C51.196,64.1720001 51.69,65.1860001 51.716,66.5640001 L48.31,66.5640001 C48.284,65.8620001 47.842,65.4980001 46.932,65.4980001 C46.126,65.4980001 45.632,65.8620001 45.658,66.4080001 C45.684,66.8500001 46.048,67.1360001 46.724,67.3180001 L48.778,67.8640001 C49.688,68.0980001 50.39,68.4880001 50.91,68.9820001 C51.976,69.9960001 52.08,70.6720001 52.08,71.4000001 C52.08,72.6220001 51.56,73.5580001 50.494,74.2080001 C49.454,74.8580001 48.232,75.1960001 46.828,75.1960001 C45.502,75.1960001 44.306,74.8320001 43.292,74.0780001 C42.278,73.3240001 41.784,72.2840001 41.758,71.0100001 L45.138,71.0100001 C45.164,71.7380001 45.97,72.4140001 46.932,72.4140001 C47.764,72.3880001 48.414,71.9980001 48.414,71.4000001 C48.414,70.8800001 48.076,70.5940001 47.218,70.3600001 Z M58.46,58.1400001 L58.46,62.7940001 L61.008,62.7940001 L61.008,65.6540001 L58.46,65.6540001 L58.46,74.9360001 L54.872,74.9360001 L54.872,65.6540001 L52.662,65.6540001 L52.662,62.7940001 L54.872,62.7940001 L54.872,58.1400001 L58.46,58.1400001 Z M62.318,62.7940001 L65.906,62.7940001 L65.906,74.9360001 L62.318,74.9360001 L62.318,62.7940001 Z M64.112,56.1900001 C65.334,56.1900001 66.322,57.1260001 66.322,58.2960001 C66.322,59.4660001 65.334,60.4280001 64.112,60.4280001 C62.864,60.4280001 61.85,59.4660001 61.85,58.2960001 C61.85,57.1260001 62.864,56.1900001 64.112,56.1900001 Z M74.2100001,62.5340001 C76.3680001,62.5340001 78.3180001,63.4700001 79.4880001,65.1080001 L76.5500001,67.2140001 C76.0300001,66.4080001 75.2500001,65.9920001 74.2100001,65.9920001 C73.4040001,65.9920001 72.7020001,66.2520001 72.1040001,66.7980001 C71.5060001,67.3180001 71.1940001,67.9940001 71.1940001,68.8260001 C71.1940001,69.6840001 71.5060001,70.3860001 72.1040001,70.9320001 C72.7020001,71.4780001 73.4040001,71.7380001 74.2100001,71.7380001 C75.2500001,71.7380001 76.0300001,71.3220001 76.5500001,70.5160001 L79.4880001,72.5960001 C78.3440001,74.2340001 76.3940001,75.1960001 74.2100001,75.1960001 C72.4160001,75.1960001 70.8560001,74.5980001 69.5560001,73.4020001 C68.2560001,72.2060001 67.6060001,70.6720001 67.6060001,68.8260001 C67.6060001,66.9800001 68.2560001,65.4720001 69.5560001,64.3020001 C70.8560001,63.1320001 72.4160001,62.5340001 74.2100001,62.5340001 Z M86.1960001,73.0120001 C86.1960001,74.2600001 85.1820001,75.1960001 83.9340001,75.1960001 C82.6860001,75.1960001 81.6980001,74.2600001 81.6980001,73.0120001 C81.6980001,71.7640001 82.6860001,70.8540001 83.9340001,70.8540001 C85.1820001,70.8540001 86.1960001,71.7900001 86.1960001,73.0120001 Z" transform="translate(46.503000, 65.693000) rotate(-90.000000) translate(-46.503000, -65.693000) "></path>
        </g>
    </g>
</svg>