<svg viewBox="0 0 47 117">
    <path d="M18.85,76.45 C21.070011,76.45 23.21499,75.970005 25.285,75.01 C27.35501,74.049995 29.184992,72.760008 30.775,71.14 C32.365008,69.519992 33.624995,67.615011 34.555,65.425 C35.485005,63.234989 35.95,60.910012 35.95,58.45 C35.95,55.989988 35.485005,53.665011 34.555,51.475 C33.624995,49.284989 32.365008,47.380008 30.775,45.76 C29.184992,44.139992 27.35501,42.850005 25.285,41.89 C23.21499,40.929995 21.070011,40.45 18.85,40.45 L11.65,40.45 L11.65,76.45 L18.85,76.45 Z M0.85,86.8 L0.85,30.1 L18.85,30.1 C22.570019,30.1 26.109983,30.864992 29.47,32.395 C32.830017,33.925008 35.799987,35.979987 38.38,38.56 C40.960013,41.140013 42.999993,44.139983 44.5,47.56 C46.000007,50.980017 46.75,54.609981 46.75,58.45 C46.75,62.290019 46.000007,65.919983 44.5,69.34 C42.999993,72.760017 40.960013,75.759987 38.38,78.34 C35.799987,80.920013 32.830017,82.974992 29.47,84.505 C26.109983,86.035008 22.570019,86.8 18.85,86.8 L0.85,86.8 Z" fill="#000000" fill-rule="nonzero" opacity="0.056594" class="letter4"></path>
    <path d="M6.5,30 L6.5,86.8" class="line2_d linea4" stroke="#4A40FD" stroke-width="11"></path>
</svg> 