<svg viewBox="0 0 115 59">
    <path d="M41.5,29.45 C41.5,32.1500135 41.95,34.6249887 42.85,36.875 C43.75,39.1250113 44.94999,41.0749917 46.45,42.725 C47.95001,44.3750082 49.70499,45.6499955 51.715,46.55 C53.72501,47.4500045 55.86999,47.9 58.15,47.9 C60.97001,47.9 63.30999,47.3750053 65.17,46.325 C67.03001,45.2749947 68.49999,44.0900066 69.58,42.77 C70.84001,41.2099922 71.83,39.4700096 72.55,37.55 L57.7,37.55 L57.7,28.1 L84.25,28.1 L84.25,57.8 L76.6,57.8 L74.35,52.4 C73.02999,53.5400057 71.56001,54.5299958 69.94,55.37 C68.55999,56.0900036 66.88001,56.749997 64.9,57.35 C62.91999,57.950003 60.67001,58.25 58.15,58.25 C54.42998,58.25 50.90502,57.5150073 47.575,56.045 C44.24498,54.5749926 41.33501,52.5350131 38.845,49.925 C36.35499,47.3149869 34.37501,44.2700174 32.905,40.79 C31.43499,37.3099826 30.7,33.5300204 30.7,29.45 C30.7,25.4299799 31.43499,21.6650176 32.905,18.155 C34.37501,14.6449825 36.35499,11.585013 38.845,8.975 C41.33501,6.36498695 44.24498,4.32500735 47.575,2.855 C50.90502,1.38499265 54.42998,0.65 58.15,0.65 C61.39002,0.65 64.40499,1.20499445 67.195,2.315 C69.98501,3.42500555 72.45999,4.89499085 74.62,6.725 C76.78001,8.5550091 78.60999,10.6999877 80.11,13.16 C81.61001,15.6200123 82.69,18.1999865 83.35,20.9 L72.1,20.9 C71.74,19.6399937 71.17,18.4250058 70.39,17.255 C69.61,16.0849941 68.63501,15.0350047 67.465,14.105 C66.29499,13.1749954 64.93001,12.4250028 63.37,11.855 C61.80999,11.2849971 60.07001,11 58.15,11 C55.86999,11 53.72501,11.4499955 51.715,12.35 C49.70499,13.2500045 47.95001,14.5249917 46.45,16.175 C44.94999,17.8250082 43.75,19.7749887 42.85,22.025 C41.95,24.2750112 41.5,26.7499865 41.5,29.45 Z" fill="#000000" fill-rule="nonzero" opacity="0.056594" class="letter4"></path>
    <path d="M84,32.5 L57.2,32.5" class="line2_g linea4" stroke="#44C2FF" stroke-width="10"></path>
</svg>