<svg viewBox="0 0 41 58">
    <path d="M0.450549451,16.403125 C0.450549451,14.2281141 0.91611256,12.14376 1.84725275,10.15 C2.77839293,8.15624003 4.09999144,6.41927823 5.81208791,4.9390625 C7.52418438,3.45884677 9.59669113,2.26562953 12.0296703,1.359375 C14.4626495,0.453120469 17.2109737,0 20.2747253,0 C23.0981826,0 25.6662888,0.453120469 27.9791209,1.359375 C30.291953,2.26562953 32.2893689,3.53436684 33.9714286,5.165625 C35.6534883,6.79688316 36.9450504,8.71509314 37.8461538,10.9203125 C38.7472573,13.1255319 39.1978022,15.5270703 39.1978022,18.125 L28.8351648,18.125 C28.8351648,15.5874873 28.0842566,13.5937573 26.5824176,12.14375 C25.0805786,10.6937428 22.9780355,9.96875 20.2747253,9.96875 C17.5714151,9.96875 15.468872,10.6333267 13.967033,11.9625 C12.465194,13.2916733 11.7142857,14.7416588 11.7142857,16.3125 C11.7142857,18.0041751 12.4351576,19.3031205 13.8769231,20.209375 C15.3186885,21.1156295 17.1208683,21.9312464 19.2835165,22.65625 C21.4461647,23.3812536 23.8040165,24.1364544 26.3571429,24.921875 C28.9102692,25.7072956 31.2681211,26.7645767 33.4307692,28.09375 C35.5934174,29.4229233 37.3955972,31.1598851 38.8373626,33.3046875 C40.2791281,35.4494899 41,38.2437328 41,41.6875 C41,43.7416769 40.5044006,45.735407 39.5131868,47.66875 C38.5219731,49.602093 37.1252837,51.3390548 35.3230769,52.8796875 C33.5208701,54.4203202 31.3432362,55.6588495 28.7901099,56.5953125 C26.2369836,57.5317755 23.3985504,58 20.2747253,58 C17.0908266,58 14.2523934,57.5468795 11.7593407,56.640625 C9.2662879,55.7343705 7.14872666,54.4505291 5.40659341,52.7890625 C3.66446015,51.1275959 2.32784348,49.1640738 1.3967033,46.8984375 C0.46556311,44.6328012 0,42.1406386 0,39.421875 L10.8131868,39.421875 C10.8131868,41.9593877 11.654204,44.0286378 13.3362637,45.6296875 C15.0183234,47.2307372 17.3311208,48.03125 20.2747253,48.03125 C23.458624,48.03125 25.831494,47.3515693 27.3934066,45.9921875 C28.9553192,44.6328057 29.7362637,43.0468841 29.7362637,41.234375 C29.7362637,39.4822829 29.0153918,38.1229215 27.5736264,37.15625 C26.1318609,36.1895785 24.3296811,35.3286496 22.167033,34.5734375 C20.0043848,33.8182254 17.6465329,33.0781286 15.0934066,32.353125 C12.5402803,31.6281214 10.1824284,30.6312563 8.01978022,29.3625 C5.85713204,28.0937437 4.05495226,26.447406 2.61318681,24.4234375 C1.17142136,22.399469 0.450549451,19.7260583 0.450549451,16.403125 Z" class="letter4" fill="#000000" opacity="0.056594122"></path>
</svg>